<svg enable-background="new 0 0 289.1 107.7" viewBox="0 0 289.1 107.7" xmlns="http://www.w3.org/2000/svg"><g fill="#006443"><path d="m213.4 87.1c0 3.2-2.5 5.5-5.9 5.5-2.4 0-4-1.2-4-3 0-1.9 1.4-3.2 3.9-3.2h6zm10.5 4.2c-1.6.2-3-.7-3-2.3l.1-8.1v-.1-.5.1c-.3-7.4-4.9-11.4-12-11.4-4.9 0-9 1.9-12.2 5.8l4 4.7c2.5-2.7 4.5-3.8 7.4-3.8 3.4 0 5.2 1.8 5.2 4.9v.4h-7c-6.5 0-10.6 3.8-10.6 8.8 0 4.9 3.7 8.4 9.7 8.4 3.6 0 7-1.8 9.1-3.9.5 2.3 2.3 3.4 5.1 3.7 1.3.1 2.5 0 3.4-.5z"/><path d="m241.3 35.8c-.1-3.4-2.7-5.6-6-5.6-3.2 0-5.8 2.2-6.7 5.6zm-12.7 5.4c.9 3.6 3.8 5.5 7.8 5.5 2.8 0 5.4-1 7.8-2.8l3.2 5.2c-3.3 2.8-7.1 4.2-11.2 4.2-8.6.2-15.5-6.5-15.3-14.6-.2-8.1 6.5-14.8 14.6-14.6 7.7 0 13.2 5.7 13.2 13 0 1.4-.2 2.8-.5 4.2h-19.6z"/><path d="m173.2 81.1c-.1-3.4-2.7-5.6-6-5.6-3.2 0-5.8 2.2-6.7 5.6zm-12.7 5.4c.9 3.6 3.8 5.5 7.8 5.5 2.8 0 5.4-1 7.8-2.8l3.2 5.2c-3.3 2.8-7.1 4.2-11.2 4.2-8.6.2-15.5-6.5-15.3-14.6-.2-8.1 6.5-14.8 14.6-14.6 7.7 0 13.2 5.7 13.2 13 0 1.4-.2 2.8-.5 4.2h-19.6z"/><path d="m176.4 24.3h7.6v27.9h-7.6zm3.8-13.8c2.7 0 4.9 2 4.9 4.7s-2.2 4.7-4.9 4.7-4.9-2-4.9-4.7 2.2-4.7 4.9-4.7"/><path d="m188.9 16.2 7.6-1.8v37.8h-7.6z"/><path d="m121.9 58h7.6v39.5h-7.6z"/><path d="m183.9 61.5 7.7-1.8v37.8h-7.7z"/><path d="m253 97.5h-7.6v-16.3c0-3.2-2.1-5.4-5.2-5.4s-5.3 2.2-5.3 5.4v16.3h-7.6v-26.2l7-1.7v3.5c2-2 4.9-4.1 8.2-4.1 6.5 0 10.5 4.5 10.5 11.2z"/><path d="m271.3 75.9c-4.1 0-7.2 3.1-7.2 7.7 0 4.7 3.1 7.7 7.2 7.7 3.8 0 7.1-2.7 7.1-7.7s-3.2-7.7-7.1-7.7m14.6-16.2v37.8h-7v-3.4c-1.9 2.7-5.1 4.1-9 4.1-7.8 0-13.5-6.2-13.5-14.6s5.8-14.6 13.5-14.6c3.6 0 6.3 1.1 8.4 3.3v-10.8z"/><path d="m166.3 10.9h-6.8l-3.1 8.9h4.1l5.6-7.5z"/><path d="m152.5 69.7c-.7-.3-1.5-.4-2.5-.4-3.1 0-6 2.6-7.8 4.9l.2-4.5-7 1.7v26.3h7.6v-14.1c0-4.8 2.9-7.3 7.5-7.3h1z"/><path d="m162.7 41.8c0 3.2-2.5 5.5-5.9 5.5-2.4 0-4-1.2-4-3s1.4-3.2 3.9-3.2h6zm10.4 4.2c-1.6.2-3-.7-3-2.3l.1-8.1v-.1-.5.1c-.2-7.4-4.9-11.4-11.9-11.4-4.9 0-9 1.9-12.2 5.8l3.9 4.7c2.5-2.7 4.5-3.8 7.4-3.8 3.4 0 5.2 1.8 5.2 4.9v.6h-7c-6.5 0-10.6 3.8-10.6 8.8 0 4.9 3.7 8.4 9.7 8.4 3.6 0 7-1.8 9.1-3.9.5 2.3 2.4 3.4 5.1 3.7 1.3.1 2.5 0 3.4-.5z"/><path d="m218.9 46.1c-.6.2-1.3.3-2.2.3-3.6 0-4.6-1.5-4.6-4.6v-11h6.7l1-6.4h-7.7v-7.1l-7.6 1.7v5.4h-4.5v6.4h4.4v11.7c0 7 4.1 10.7 11.2 10.5 1 0 1.8-.2 2.4-.4z"/></g><path d="m17 19.3c-10.7 13.7-9.5 33.1.4 48v.1s0-.1-.1-.1c-1.2-17.4 6.3-39.6 24.2-49.8 10.2-5.8 21.5-7.4 32.1-5.3 6.5 1.3 12.7 3.9 18.1 7.8-11-13.6-28.1-19-45-16.3-11 1.7-22.6 6.5-29.7 15.6z" fill="#b8c11c"/><path d="m42.3 104.5c17.2 2.4 33.4-8.3 41.4-24.4 0 0 0 0 0-.1 0 0 0 .1-.1.1-14.5 9.7-37.5 14.4-55.2 4-10.1-5.9-17.1-15-20.6-25.1-2.2-6.3-3-12.9-2.3-19.6-6.3 16.3-2.4 33.8 8.3 47.1 7.1 8.7 17 16.4 28.5 18z" fill="#89c9c8"/><path d="m103.7 39.7c-6.7-16-24.2-24.6-42-23.2h-.1.1c15.8 7.5 31.5 25 31.5 45.5 0 11.7-4.2 22.4-11.1 30.6-4.3 5-9.6 9.1-15.7 11.9 17.2-2.9 30.3-15.2 36.3-31.2 3.9-10.4 5.5-22.9 1-33.6z" fill="#81b13e"/><path d="m48.2 51.5.5-.8c-2.6-2.4-5.8-5.4-7.3-7.1-2.8-3.1-2.6-7.2-2.6-7.2 0-4.6 4-8.3 8.8-8.2 3 0 5.6 1.5 7.1 3.7 1.6-2.2 4.2-3.6 7.2-3.5 4.8.1 8.6 3.8 8.6 8.4 0 0 .2 4.1-2.7 7.1-1.6 1.6-4.8 4.6-7.5 6.9l.6 1.1.4.7c3.4-1.1 7.6-2.4 9.8-2.9 4.1-.9 7.5 1.4 7.5 1.4 4 2.3 5.2 7.6 2.8 11.7-1.5 2.6-4.1 4.1-6.7 4.4 1.1 2.5 1 5.4-.5 8-2.4 4.1-7.6 5.6-11.6 3.3 0 0-3.7-1.9-4.9-5.9-.6-2.2-1.6-6.5-2.3-9.9h-1-1c-.8 3.5-1.8 7.7-2.5 9.9-1.3 4-5 5.8-5 5.8-4 2.2-9.2.7-11.5-3.5-1.5-2.6-1.5-5.6-.3-8-2.7-.3-5.2-1.9-6.6-4.5-2.3-4.2-.9-9.4 3.1-11.6 0 0 3.5-2.2 7.5-1.2 2.2.5 6.4 1.9 9.7 3.1z" fill="#006443"/><path d="m129.5 18.3h16.8l1-7.4h-25.4v41.3h7.6v-16.9h13.9v-6.9h-13.9z" fill="#006443"/></svg>